Coordinates
version=1
nRows=32
nColumns=12
inDegrees=yes

Units are S.I. units (second, meters, Newtons, ...)
Angles are in degrees

endheader
time	SC_y	SC_z	SC_x	AC_y	AC_z	AC_x	GH_y	GH_z	GH_yy	EL_x	PS_y
       0.0              -11.36          17.54           14.9          58.27          4.117         -11.53          79.35           39.4          52.43          115.2          150.8
   0.02455              -11.36          17.55           14.9          58.27          4.114         -11.53          79.34           39.4          52.41          115.2          150.8
   0.04911              -11.36          17.55           14.9          58.26           4.11         -11.53          79.32           39.4          52.39          115.1          150.8
   0.07366              -11.37          17.55          14.91          58.26          4.106         -11.52           79.3          39.39          52.36          115.1          150.7
   0.09822              -11.37          17.55          14.91          58.26          4.102         -11.52          79.29          39.39          52.33          115.1          150.7
    0.1228              -11.37          17.55          14.91          58.25          4.098         -11.52          79.27          39.38           52.3          115.1          150.7
    0.1473              -11.38          17.55          14.91          58.25          4.093         -11.52          79.25          39.38          52.27          115.1          150.7
    0.1719              -11.38          17.55          14.91          58.24          4.089         -11.52          79.22          39.37          52.23          115.1          150.7
    0.1964              -11.39          17.55          14.91          58.23          4.083         -11.52           79.2          39.37           52.2          115.0          150.7
     0.221              -11.39          17.55          14.91          58.23          4.078         -11.51          79.17          39.36          52.16          115.0          150.7
    0.2455               -11.4          17.56          14.91          58.22          4.071         -11.51          79.15          39.35          52.12          115.0          150.7
    0.2701               -11.4          17.56          14.91          58.22          4.065         -11.51          79.12          39.35          52.07          115.0          150.7
    0.2946              -11.41          17.56          14.91          58.21          4.058         -11.51          79.09          39.34          52.02          114.9          150.7
    0.3192              -11.42          17.56          14.91           58.2           4.05          -11.5          79.05          39.33          51.97          114.9          150.7
    0.3438              -11.42          17.56          14.92          58.19          4.042          -11.5          79.01          39.32          51.91          114.9          150.7
    0.3683              -11.43          17.56          14.92          58.18          4.033          -11.5          78.97          39.31          51.85          114.8          150.6
    0.3929              -11.44          17.57          14.92          58.17          4.023          -11.5          78.93           39.3          51.78          114.8          150.6
    0.4174              -11.45          17.57          14.92          58.16          4.013         -11.49          78.88          39.29          51.71          114.8          150.6
     0.442              -11.46          17.57          14.92          58.15          4.001         -11.49          78.83          39.27          51.63          114.7          150.6
    0.4665              -11.47          17.58          14.93          58.13          3.988         -11.48          78.77          39.26          51.54          114.7          150.6
    0.4911              -11.48          17.58          14.93          58.12          3.974         -11.48          78.71          39.24          51.44          114.6          150.6
    0.5156               -11.5          17.58          14.93           58.1          3.959         -11.47          78.64          39.23          51.33          114.6          150.5
    0.5402              -11.51          17.59          14.93          58.08          3.942         -11.47          78.56          39.21          51.22          114.5          150.5
    0.5647              -11.53          17.59          14.94          58.06          3.923         -11.46          78.48          39.19          51.08          114.4          150.5
    0.5893              -11.55           17.6          14.94          58.04          3.903         -11.45          78.39          39.16          50.94          114.3          150.5
    0.6138              -11.57           17.6          14.94          58.02          3.879         -11.44          78.28          39.14          50.78          114.2          150.4
    0.6384              -11.59          17.61          14.95          57.99          3.853         -11.44          78.16          39.11           50.6          114.1          150.4
     0.663              -11.62          17.62          14.95          57.96          3.824         -11.42          78.03          39.08          50.39          114.0          150.3
    0.6875              -11.65          17.62          14.96          57.92          3.791         -11.41          77.88          39.04          50.16          113.9          150.3
    0.7121              -11.68          17.63          14.97          57.88          3.753          -11.4          77.71           39.0           49.9          113.7          150.2
    0.7366              -11.72          17.64          14.97          57.84           3.71         -11.38          77.52          38.95           49.6          113.6          150.2
    0.7612              -11.76          17.66          14.98          57.78          3.661         -11.37           77.3          38.89          49.26          113.4          150.1
